<?xml version="1.0" encoding="UTF-8" standalone="no"?>
<!DOCTYPE svg PUBLIC "-//W3C//DTD SVG 1.1//EN" "http://www.w3.org/Graphics/SVG/1.1/DTD/svg11.dtd">
<svg width="100%" height="100%" viewBox="0 0 240 300" version="1.1" xmlns="http://www.w3.org/2000/svg" xmlns:xlink="http://www.w3.org/1999/xlink" xml:space="preserve" style="fill-rule:evenodd;clip-rule:evenodd;stroke-linejoin:round;stroke-miterlimit:1.41421;">
    <g transform="matrix(-1.40356,0,0,1.4476,1707.44,-1478.57)">
        <path d="M1208.9,1157.79C1203.93,1145.99 1201.4,1150.81 1200.46,1144.92C1198.18,1130.65 1194.89,1126.33 1179.56,1115.64C1147.82,1093.5 1151.85,1092.06 1145.03,1063.99C1140.24,1044.27 1129.05,1033.88 1117.91,1028.88C1106.63,1023.8 1095.41,1024.25 1090.99,1026.11C1090.99,1026.11 1082.24,1022.88 1083.18,1024.24C1084.13,1025.61 1092.08,1030.42 1087.83,1035.78C1086.02,1038.07 1083.03,1041.81 1083.18,1045.72C1083.32,1049.04 1083.11,1049.21 1080.34,1057.25C1079.23,1060.48 1079.37,1064.91 1079.4,1068.06C1079.41,1069.55 1081.86,1074.89 1085.61,1075.2C1092.14,1075.72 1092.96,1070.52 1093.34,1069.19C1093.71,1067.86 1105.35,1057.25 1105.52,1057.25C1105.69,1057.25 1108.06,1065.92 1103.52,1068.06C1098.97,1070.2 1096.15,1082.01 1096.15,1082.26C1096.15,1082.51 1097.02,1087.48 1085.61,1077.69C1074.2,1067.91 1066.57,1078.26 1065.85,1078.98C1065.12,1079.7 1055.72,1084.36 1054.56,1084.83C1053.39,1085.3 1055.76,1087.27 1053.14,1089.78C1050.53,1092.3 1047.67,1101.8 1047.67,1101.8L1056.7,1101.8C1056.7,1101.8 1059.74,1093.6 1060.48,1093.19C1061.22,1092.79 1067.84,1079.16 1076.3,1082.1C1084.76,1085.03 1078.86,1083.87 1078.86,1083.87C1077.57,1083.42 1073.41,1084.13 1065.55,1093.19C1065.1,1093.71 1064.55,1095.76 1064.52,1095.89C1064.07,1097.61 1058.51,1102.79 1058.45,1103.34C1058.28,1104.8 1059.6,1106.06 1059.62,1109.87C1059.64,1111.92 1060.21,1116.31 1060.48,1117.86C1060.84,1119.88 1061.91,1120.89 1061.91,1120.89L1067.66,1113.19C1068.22,1112.56 1065.57,1104.55 1066.12,1103.34C1069.84,1095.09 1075.01,1088.47 1080.04,1093.19C1083.69,1096.62 1091.22,1100.62 1097.51,1106.06C1099.43,1107.73 1101.06,1109.62 1102.56,1111.63C1112.38,1124.85 1137.2,1143.71 1142.61,1144.92C1151.9,1146.99 1154.38,1149.19 1156.67,1154.45L1156.67,1164.38C1156.67,1164.38 1160.64,1168.99 1162.77,1173.24C1164.9,1177.48 1175.64,1191.31 1175.61,1196.56C1175.59,1201.63 1164.88,1216.88 1164.18,1217.66C1162.56,1219.49 1161.32,1223.11 1161.87,1224.68L1169.92,1224.68C1169.92,1224.68 1170.7,1218.68 1171.59,1217.66C1172.47,1216.64 1176.47,1205.21 1179.56,1205.39C1181.47,1205.51 1175.26,1218.35 1174.75,1219.34C1172.88,1223.04 1173.16,1226.53 1173.16,1226.53L1181.28,1225.92L1181.28,1217.66C1181.28,1217.66 1185.05,1206.38 1187,1203.04C1188.66,1200.18 1191.76,1193.54 1192.38,1192.42C1192.97,1191.37 1180.89,1177.78 1181.28,1176.33C1181.67,1174.87 1181.16,1171.35 1184.88,1170.66C1188.6,1169.98 1197.98,1158.72 1198.22,1154.45C1198.47,1150.18 1200.2,1175.08 1198.22,1185.34C1196.25,1195.61 1186.93,1213 1204.39,1221.34C1210.39,1224.2 1214.29,1225.31 1214.29,1225.31C1214.29,1225.31 1211.92,1222.58 1212.04,1221.34C1212.12,1220.59 1214.29,1219.34 1214.29,1219.34C1214.29,1219.34 1202.44,1208.99 1204.39,1203.04C1209.37,1187.84 1213.86,1169.58 1208.9,1157.79Z" style="fill:black;"/>
    </g>
</svg>
